<?xml version="1.0" encoding="UTF-8" standalone="no"?>
<!DOCTYPE svg PUBLIC "-//W3C//DTD SVG 1.1//EN"
 "http://www.w3.org/Graphics/SVG/1.1/DTD/svg11.dtd">
<!-- Generated by graphviz version 2.40.1 (20161225.0304)
 -->
<!-- Title: dependencies Pages: 1 -->
<svg width="1466pt" height="349pt"
 viewBox="0.00 0.00 1466.00 349.00" xmlns="http://www.w3.org/2000/svg" xmlns:xlink="http://www.w3.org/1999/xlink">
<g id="graph0" class="graph" transform="scale(1 1) rotate(0) translate(4 345)">
<title>dependencies</title>
<polygon fill="#ffffff" stroke="transparent" points="-4,4 -4,-345 1462,-345 1462,4 -4,4"/>
<text text-anchor="start" x="708.0091" y="-42.4" font-family="sans-serif" font-weight="bold" font-size="14.00" fill="#000000">Legend</text>
<polygon fill="#ffffb3" stroke="transparent" points="495,-10 495,-30 515,-30 515,-10 495,-10"/>
<text text-anchor="start" x="518.629" y="-15.4" font-family="sans-serif" font-size="14.00" fill="#000000"> &#160;Declarations</text>
<polygon fill="#8dd3c7" stroke="transparent" points="608,-10 608,-30 628,-30 628,-10 608,-10"/>
<text text-anchor="start" x="631.7251" y="-15.4" font-family="sans-serif" font-size="14.00" fill="#000000"> &#160;Module</text>
<polygon fill="#80b1d3" stroke="transparent" points="694,-10 694,-30 714,-30 714,-10 694,-10"/>
<text text-anchor="start" x="717.7812" y="-15.4" font-family="sans-serif" font-size="14.00" fill="#000000"> &#160;Bootstrap</text>
<polygon fill="#fdb462" stroke="transparent" points="791,-10 791,-30 811,-30 811,-10 791,-10"/>
<text text-anchor="start" x="814.6732" y="-15.4" font-family="sans-serif" font-size="14.00" fill="#000000"> &#160;Providers</text>
<polygon fill="#fb8072" stroke="transparent" points="887,-10 887,-30 907,-30 907,-10 887,-10"/>
<text text-anchor="start" x="910.7258" y="-15.4" font-family="sans-serif" font-size="14.00" fill="#000000"> &#160;Exports</text>
<g id="clust1" class="cluster">
<title>cluster_AppModule</title>
<polygon fill="none" stroke="#000000" stroke-dasharray="1,5" points="8,-70 8,-333 1450,-333 1450,-70 8,-70"/>
</g>
<g id="clust2" class="cluster">
<title>cluster_AppModule_declarations</title>
<polygon fill="none" stroke="#000000" points="194,-143 194,-195 1442,-195 1442,-143 194,-143"/>
</g>
<g id="clust11" class="cluster">
<title>cluster_AppModule_imports</title>
<polygon fill="none" stroke="#000000" points="28,-143 28,-195 172,-195 172,-143 28,-143"/>
</g>
<g id="clust13" class="cluster">
<title>cluster_AppModule_bootstrap</title>
<polygon fill="none" stroke="#000000" points="520,-273 520,-325 644,-325 644,-273 520,-273"/>
</g>
<g id="clust14" class="cluster">
<title>cluster_AppModule_providers</title>
<polygon fill="none" stroke="#000000" points="16,-78 16,-130 274,-130 274,-78 16,-78"/>
</g>
<!-- AppComponent -->
<g id="node1" class="node">
<title>AppComponent</title>
<polygon fill="#ffffb3" stroke="#000000" points="1433.9399,-187 1328.0601,-187 1328.0601,-151 1433.9399,-151 1433.9399,-187"/>
<text text-anchor="middle" x="1381" y="-164.8" font-family="Times,serif" font-size="14.00" fill="#000000">AppComponent</text>
</g>
<!-- AppModule -->
<g id="node9" class="node">
<title>AppModule</title>
<polygon fill="#8dd3c7" stroke="#000000" points="623.6571,-252 620.6571,-256 599.6571,-256 596.6571,-252 540.3429,-252 540.3429,-216 623.6571,-216 623.6571,-252"/>
<text text-anchor="middle" x="582" y="-229.8" font-family="Times,serif" font-size="14.00" fill="#000000">AppModule</text>
</g>
<!-- AppComponent&#45;&gt;AppModule -->
<g id="edge1" class="edge">
<title>AppComponent&#45;&gt;AppModule</title>
<path fill="none" stroke="#000000" d="M1381,-187.2479C1381,-210.0179 1381,-246 1381,-246 1381,-246 633.8327,-246 633.8327,-246"/>
<polygon fill="#000000" stroke="#000000" points="633.8328,-242.5001 623.8327,-246 633.8327,-249.5001 633.8328,-242.5001"/>
</g>
<!-- MapComponent -->
<g id="node2" class="node">
<title>MapComponent</title>
<polygon fill="#ffffb3" stroke="#000000" points="1310.4916,-187 1203.5084,-187 1203.5084,-151 1310.4916,-151 1310.4916,-187"/>
<text text-anchor="middle" x="1257" y="-164.8" font-family="Times,serif" font-size="14.00" fill="#000000">MapComponent</text>
</g>
<!-- MapComponent&#45;&gt;AppModule -->
<g id="edge2" class="edge">
<title>MapComponent&#45;&gt;AppModule</title>
<path fill="none" stroke="#000000" d="M1257,-187.2843C1257,-208.3211 1257,-240 1257,-240 1257,-240 633.7149,-240 633.7149,-240"/>
<polygon fill="#000000" stroke="#000000" points="633.7149,-236.5001 623.7149,-240 633.7148,-243.5001 633.7149,-236.5001"/>
</g>
<!-- PrivacyPromptComponent -->
<g id="node3" class="node">
<title>PrivacyPromptComponent</title>
<polygon fill="#ffffb3" stroke="#000000" points="1185.8201,-187 1020.1799,-187 1020.1799,-151 1185.8201,-151 1185.8201,-187"/>
<text text-anchor="middle" x="1103" y="-164.8" font-family="Times,serif" font-size="14.00" fill="#000000">PrivacyPromptComponent</text>
</g>
<!-- PrivacyPromptComponent&#45;&gt;AppModule -->
<g id="edge3" class="edge">
<title>PrivacyPromptComponent&#45;&gt;AppModule</title>
<path fill="none" stroke="#000000" d="M1103,-187.1061C1103,-206.3391 1103,-234 1103,-234 1103,-234 633.7549,-234 633.7549,-234"/>
<polygon fill="#000000" stroke="#000000" points="633.755,-230.5001 623.7549,-234 633.7549,-237.5001 633.755,-230.5001"/>
</g>
<!-- SearchbarComponent -->
<g id="node4" class="node">
<title>SearchbarComponent</title>
<polygon fill="#ffffb3" stroke="#000000" points="1002.7949,-187 865.2051,-187 865.2051,-151 1002.7949,-151 1002.7949,-187"/>
<text text-anchor="middle" x="934" y="-164.8" font-family="Times,serif" font-size="14.00" fill="#000000">SearchbarComponent</text>
</g>
<!-- SearchbarComponent&#45;&gt;AppModule -->
<g id="edge4" class="edge">
<title>SearchbarComponent&#45;&gt;AppModule</title>
<path fill="none" stroke="#000000" d="M934,-187.0225C934,-204.3734 934,-228 934,-228 934,-228 633.7613,-228 633.7613,-228"/>
<polygon fill="#000000" stroke="#000000" points="633.7613,-224.5001 623.7613,-228 633.7613,-231.5001 633.7613,-224.5001"/>
</g>
<!-- SimulationWidgetComponent -->
<g id="node5" class="node">
<title>SimulationWidgetComponent</title>
<polygon fill="#ffffb3" stroke="#000000" points="846.993,-187 663.007,-187 663.007,-151 846.993,-151 846.993,-187"/>
<text text-anchor="middle" x="755" y="-164.8" font-family="Times,serif" font-size="14.00" fill="#000000">SimulationWidgetComponent</text>
</g>
<!-- SimulationWidgetComponent&#45;&gt;AppModule -->
<g id="edge5" class="edge">
<title>SimulationWidgetComponent&#45;&gt;AppModule</title>
<path fill="none" stroke="#000000" d="M755,-187.2396C755,-202.5706 755,-222 755,-222 755,-222 633.8785,-222 633.8785,-222"/>
<polygon fill="#000000" stroke="#000000" points="633.8785,-218.5001 623.8785,-222 633.8784,-225.5001 633.8785,-218.5001"/>
</g>
<!-- ToolbarComponent -->
<g id="node6" class="node">
<title>ToolbarComponent</title>
<polygon fill="#ffffb3" stroke="#000000" points="644.6513,-187 519.3487,-187 519.3487,-151 644.6513,-151 644.6513,-187"/>
<text text-anchor="middle" x="582" y="-164.8" font-family="Times,serif" font-size="14.00" fill="#000000">ToolbarComponent</text>
</g>
<!-- ToolbarComponent&#45;&gt;AppModule -->
<g id="edge6" class="edge">
<title>ToolbarComponent&#45;&gt;AppModule</title>
<path fill="none" stroke="#000000" d="M582,-187.1061C582,-187.1061 582,-205.991 582,-205.991"/>
<polygon fill="#000000" stroke="#000000" points="578.5001,-205.9909 582,-215.991 585.5001,-205.991 578.5001,-205.9909"/>
</g>
<!-- ToolboxComponent -->
<g id="node7" class="node">
<title>ToolboxComponent</title>
<polygon fill="#ffffb3" stroke="#000000" points="501.2758,-187 372.7242,-187 372.7242,-151 501.2758,-151 501.2758,-187"/>
<text text-anchor="middle" x="437" y="-164.8" font-family="Times,serif" font-size="14.00" fill="#000000">ToolboxComponent</text>
</g>
<!-- ToolboxComponent&#45;&gt;AppModule -->
<g id="edge7" class="edge">
<title>ToolboxComponent&#45;&gt;AppModule</title>
<path fill="none" stroke="#000000" d="M437,-187.2396C437,-202.5706 437,-222 437,-222 437,-222 530.06,-222 530.06,-222"/>
<polygon fill="#000000" stroke="#000000" points="530.06,-225.5001 540.06,-222 530.06,-218.5001 530.06,-225.5001"/>
</g>
<!-- UserSettingsComponent -->
<g id="node8" class="node">
<title>UserSettingsComponent</title>
<polygon fill="#ffffb3" stroke="#000000" points="354.3725,-187 201.6275,-187 201.6275,-151 354.3725,-151 354.3725,-187"/>
<text text-anchor="middle" x="278" y="-164.8" font-family="Times,serif" font-size="14.00" fill="#000000">UserSettingsComponent</text>
</g>
<!-- UserSettingsComponent&#45;&gt;AppModule -->
<g id="edge8" class="edge">
<title>UserSettingsComponent&#45;&gt;AppModule</title>
<path fill="none" stroke="#000000" d="M278,-187.0225C278,-204.3734 278,-228 278,-228 278,-228 530.0493,-228 530.0493,-228"/>
<polygon fill="#000000" stroke="#000000" points="530.0493,-231.5001 540.0493,-228 530.0492,-224.5001 530.0493,-231.5001"/>
</g>
<!-- AppComponent  -->
<g id="node11" class="node">
<title>AppComponent </title>
<polygon fill="#80b1d3" stroke="#000000" points="636.439,-317 527.561,-317 527.561,-281 636.439,-281 636.439,-317"/>
<text text-anchor="middle" x="582" y="-294.8" font-family="Times,serif" font-size="14.00" fill="#000000">AppComponent </text>
</g>
<!-- AppModule&#45;&gt;AppComponent  -->
<g id="edge10" class="edge">
<title>AppModule&#45;&gt;AppComponent </title>
<path fill="none" stroke="#000000" stroke-dasharray="1,5" d="M582,-252.1061C582,-252.1061 582,-270.991 582,-270.991"/>
<polygon fill="#000000" stroke="#000000" points="578.5001,-270.9909 582,-280.991 585.5001,-270.991 578.5001,-270.9909"/>
</g>
<!-- AppRoutingModule -->
<g id="node10" class="node">
<title>AppRoutingModule</title>
<polygon fill="#8dd3c7" stroke="#000000" points="164.2744,-187 161.2744,-191 140.2744,-191 137.2744,-187 35.7256,-187 35.7256,-151 164.2744,-151 164.2744,-187"/>
<text text-anchor="middle" x="100" y="-164.8" font-family="Times,serif" font-size="14.00" fill="#000000">AppRoutingModule</text>
</g>
<!-- AppRoutingModule&#45;&gt;AppModule -->
<g id="edge9" class="edge">
<title>AppRoutingModule&#45;&gt;AppModule</title>
<path fill="none" stroke="#000000" d="M100,-187.2843C100,-208.3211 100,-240 100,-240 100,-240 530.0688,-240 530.0688,-240"/>
<polygon fill="#000000" stroke="#000000" points="530.0689,-243.5001 540.0688,-240 530.0688,-236.5001 530.0689,-243.5001"/>
</g>
<!-- AuthGuard -->
<g id="node12" class="node">
<title>AuthGuard</title>
<ellipse fill="#fdb462" stroke="#000000" cx="78" cy="-104" rx="54.4566" ry="18"/>
<text text-anchor="middle" x="78" y="-99.8" font-family="Times,serif" font-size="14.00" fill="#000000">AuthGuard</text>
</g>
<!-- AuthGuard&#45;&gt;AppModule -->
<g id="edge11" class="edge">
<title>AuthGuard&#45;&gt;AppModule</title>
<path fill="none" stroke="#000000" d="M29.5673,-112.4575C29.5673,-143.0275 29.5673,-246 29.5673,-246 29.5673,-246 530.0243,-246 530.0243,-246"/>
<polygon fill="#000000" stroke="#000000" points="530.0244,-249.5001 540.0243,-246 530.0243,-242.5001 530.0244,-249.5001"/>
</g>
<!-- AuthGuard&#45;&gt;AppRoutingModule -->
<g id="edge13" class="edge">
<title>AuthGuard&#45;&gt;AppRoutingModule</title>
<path fill="none" stroke="#000000" d="M84.0456,-122.1061C84.0456,-122.1061 84.0456,-140.991 84.0456,-140.991"/>
<polygon fill="#000000" stroke="#000000" points="80.5457,-140.9909 84.0456,-150.991 87.5457,-140.991 80.5457,-140.9909"/>
</g>
<!-- GridService -->
<g id="node13" class="node">
<title>GridService</title>
<ellipse fill="#fdb462" stroke="#000000" cx="208" cy="-104" rx="57.881" ry="18"/>
<text text-anchor="middle" x="208" y="-99.8" font-family="Times,serif" font-size="14.00" fill="#000000">GridService</text>
</g>
<!-- GridService&#45;&gt;AppModule -->
<g id="edge12" class="edge">
<title>GridService&#45;&gt;AppModule</title>
<path fill="none" stroke="#000000" d="M182.9755,-120.4646C182.9755,-155.4458 182.9755,-234 182.9755,-234 182.9755,-234 530.0516,-234 530.0516,-234"/>
<polygon fill="#000000" stroke="#000000" points="530.0516,-237.5001 540.0516,-234 530.0515,-230.5001 530.0516,-237.5001"/>
</g>
</g>
</svg>
